<svg width="322" height="65" viewBox="0 0 322 65" fill="none" xmlns="http://www.w3.org/2000/svg">
<g clip-path="url(#clip0_1_5)">
<path d="M52.9341 64.8845C48.239 64.8978 44.4079 61.1469 44.3947 56.5161L44.355 45.0992L49.3852 45.0814L49.4249 56.4984C49.4293 58.3916 50.9988 59.9292 52.9209 59.9204C54.8431 59.9159 56.3993 58.3694 56.3905 56.4761L56.342 41.2994L61.3722 41.2816L61.4207 56.4584C61.434 61.0892 57.6293 64.8667 52.9341 64.8845Z" fill="#F62B57"/>
<path d="M24.8866 21.2297L19.8564 21.2474L19.8123 8.50608C19.8079 6.61288 18.2384 5.07521 16.3162 5.07965C14.3941 5.08409 12.8379 6.63065 12.8467 8.5283L12.8775 17.6077L7.8473 17.6255L7.81644 8.54608C7.80321 3.91084 11.6123 0.133321 16.303 0.115544C20.9982 0.102212 24.8293 3.85751 24.8425 8.48831L24.8866 21.2297Z" fill="#F62B57"/>
<path d="M16.519 65C11.8238 65.0133 7.99276 61.2625 7.97953 56.6317L7.89136 29.5713L12.9216 29.5535L13.0098 56.6139C13.0142 58.5071 14.5836 60.0448 16.5058 60.0359C18.4279 60.0314 19.9842 58.4849 19.9754 56.5917L19.9269 41.9216L23.6918 42.6726C27.4215 43.397 31.0674 43.7615 34.5194 43.7481C48.0759 43.7037 56.417 39.7928 58.6521 38.5974L60.9314 37.3797C63.7485 35.8687 64.2819 34.7932 64.2775 33.3355C64.2775 33.2555 64.2775 33.18 64.2687 33.1C64.2158 32.3845 63.9381 31.8956 63.3826 31.5667C62.4788 31.0245 61.0725 31.0245 59.8028 31.5667C56.0731 33.1533 46.1405 36.8375 34.5018 36.8775C30.0799 36.8908 24.8689 36.3797 20.8968 35.5442L21.946 30.6912C25.539 31.4467 30.4591 31.9267 34.4841 31.9134C45.197 31.8778 54.367 28.4692 57.8145 27.007C60.5787 25.8338 63.7176 25.9538 66.0013 27.327C67.9543 28.5003 69.1226 30.4246 69.2901 32.7444C69.3033 32.9311 69.3122 33.1222 69.3122 33.3177C69.3254 37.9307 66.1291 40.2417 63.3429 41.7349L61.0592 42.9571C57.863 44.6725 48.8738 48.6633 34.5414 48.7078C31.4686 48.7167 28.2636 48.4589 24.9836 47.9345L25.01 56.565C25.0232 61.1958 21.2186 64.9733 16.5234 64.9911" fill="#F62B57"/>
<path d="M34.8721 36.882C20.5441 36.9264 11.5285 32.9933 8.31905 31.3001L6.02658 30.0958C3.22711 28.6159 0.0132258 26.3271 0 21.7141C0 21.523 0.00440861 21.3319 0.0176345 21.1453C0.167527 18.821 1.32258 16.8878 3.27119 15.7012C5.54604 14.3146 8.68056 14.1724 11.458 15.3279C14.9143 16.7678 24.1107 20.1187 34.8192 20.0831C37.795 20.0742 40.9737 19.7631 44.2713 19.1632L44.236 8.42168C44.2184 3.79533 48.023 0.0133678 52.7182 3.5391e-05C57.4134 -0.013297 61.2445 3.742 61.2577 8.3728L61.3282 29.2869L56.298 29.3047L56.2275 8.39057C56.2231 6.49737 54.6536 4.9597 52.7314 4.96859C50.8093 4.97303 49.253 6.51959 49.2619 8.41724L49.3103 23.0029L45.9598 23.9095C42.089 24.6606 38.3461 25.0472 34.8325 25.0605C23.6169 25.0961 14.1428 21.8519 9.49615 19.9142C8.21766 19.3809 6.81131 19.3898 5.91195 19.9365C5.36087 20.2698 5.08313 20.7586 5.03905 21.4741C5.03464 21.5497 5.03023 21.6297 5.03023 21.7141C5.03464 23.1718 5.57249 24.2428 8.39841 25.7361L10.6865 26.9404C12.9305 28.1226 21.298 31.9801 34.8545 31.9356C38.6239 31.9223 42.6181 31.4645 46.7269 30.5668L47.8114 35.4109C43.3543 36.3842 38.9986 36.882 34.8677 36.8953" fill="#F62B57"/>
<path d="M88.719 18.0565C88.719 16.0567 90.3634 14.4346 92.3914 14.4346C94.4193 14.4346 96.0637 16.0567 96.0637 18.0565V27.5892C97.7566 25.4427 99.9301 23.4917 103.651 23.4917C109.206 23.4917 112.446 27.1137 112.446 32.9755V46.1791C112.446 48.1789 110.802 49.801 108.774 49.801C106.746 49.801 105.101 48.1789 105.101 46.1791V35.2643C105.101 31.8334 103.457 30.0691 100.658 30.0691C97.8581 30.0691 96.0682 31.8334 96.0682 35.2643V46.1791C96.0682 48.1789 94.4237 49.801 92.3958 49.801C90.3678 49.801 88.7234 48.1789 88.7234 46.1791V18.0565H88.719Z" fill="#F62B57"/>
<path d="M129.164 50.0899C121.382 50.0899 115.634 44.7036 115.634 36.8864V36.793C115.634 29.5002 120.902 23.4962 128.436 23.4962C137.086 23.4962 140.904 30.5046 140.904 35.7931C140.904 37.8907 139.405 39.2729 137.474 39.2729H122.93C123.653 42.5615 125.976 44.277 129.261 44.277C131.289 44.277 132.981 43.6592 134.48 42.5615C135.014 42.1793 135.494 41.9882 136.27 41.9882C137.915 41.9882 139.123 43.2282 139.123 44.8503C139.123 45.8058 138.686 46.5168 138.157 46.9968C135.887 48.9033 132.937 50.0944 129.168 50.0944L129.164 50.0899ZM133.898 34.7398C133.462 31.5001 131.531 29.3047 128.441 29.3047C125.35 29.3047 123.415 31.4512 122.837 34.7398H133.903H133.898Z" fill="#F62B57"/>
<path d="M145.211 56.6184C144.148 56.2362 142.892 55.3784 142.892 53.6141C142.892 51.8498 144.294 50.6588 145.793 50.6588C146.375 50.6588 146.71 50.7521 147.001 50.8499C147.627 51.041 148.015 51.1343 148.548 51.1343C149.853 51.1343 150.479 50.8943 151.158 49.6099L151.401 49.0366L142.557 28.8247C142.363 28.3492 142.169 27.6337 142.169 27.1581C142.169 25.1094 143.765 23.6784 145.793 23.6784C147.631 23.6784 148.694 24.6783 149.32 26.3937L154.923 41.2638L160.337 26.4382C160.919 24.9139 161.981 23.6739 163.864 23.6739C165.746 23.6739 167.342 25.1049 167.342 27.0115C167.342 27.5848 167.148 28.3936 167.003 28.7269L157.965 50.1299C155.792 55.3251 153.618 57.2805 149.218 57.2805C147.574 57.2805 146.414 57.0405 145.206 56.6139L145.211 56.6184Z" fill="#F62B57"/>
<path d="M170.239 18.0565C170.239 16.0567 171.883 14.4346 173.911 14.4346C175.939 14.4346 177.584 16.0567 177.584 18.0565V27.5892C179.276 25.4427 181.45 23.4917 185.171 23.4917C190.726 23.4917 193.966 27.1137 193.966 32.9755V46.1791C193.966 48.1789 192.322 49.801 190.294 49.801C188.266 49.801 186.621 48.1789 186.621 46.1791V35.2643C186.621 31.8334 184.977 30.0691 182.177 30.0691C179.378 30.0691 177.588 31.8334 177.588 35.2643V46.1791C177.588 48.1789 175.944 49.801 173.916 49.801C171.888 49.801 170.243 48.1789 170.243 46.1791V18.0565H170.239Z" fill="#F62B57"/>
<path d="M197.158 36.8864V36.793C197.158 29.4513 203.149 23.4962 211.217 23.4962C219.285 23.4962 225.183 29.358 225.183 36.6997V36.793C225.183 44.1348 219.192 50.0899 211.124 50.0899C203.056 50.0899 197.158 44.2281 197.158 36.8864ZM217.936 36.8864V36.793C217.936 33.0289 215.18 29.7402 211.124 29.7402C207.068 29.7402 204.405 32.9355 204.405 36.6997V36.793C204.405 40.5572 207.161 43.8459 211.217 43.8459C215.273 43.8459 217.936 40.6506 217.936 36.8864Z" fill="#F62B57"/>
<path d="M228.565 27.3048C228.565 25.3049 230.209 23.6828 232.237 23.6828C234.265 23.6828 235.909 25.3049 235.909 27.3048V27.5892C237.602 25.4427 239.824 23.4917 243.545 23.4917C246.927 23.4917 249.488 24.9672 250.841 27.5448C253.112 24.9227 255.819 23.4917 259.346 23.4917C264.808 23.4917 268.092 26.7315 268.092 32.8822V46.1791C268.092 48.1789 266.448 49.801 264.42 49.801C262.392 49.801 260.748 48.1789 260.748 46.1791V35.2643C260.748 31.8334 259.2 30.0691 256.449 30.0691C253.698 30.0691 252.005 31.8334 252.005 35.2643V46.1791C252.005 48.1789 250.361 49.801 248.333 49.801C246.305 49.801 244.661 48.1789 244.661 46.1791V35.2643C244.661 31.8334 243.113 30.0691 240.362 30.0691C237.611 30.0691 235.918 31.8334 235.918 35.2643V46.1791C235.918 48.1789 234.274 49.801 232.246 49.801C230.218 49.801 228.573 48.1789 228.573 46.1791V27.3048H228.565Z" fill="#F62B57"/>
<path d="M272.444 17.8655C272.444 15.7678 274.234 14.4835 276.552 14.4835C278.871 14.4835 280.661 15.7723 280.661 17.8655V17.9588C280.661 20.0564 278.876 21.3897 276.552 21.3897C274.229 21.3897 272.444 20.0564 272.444 17.9588V17.8655ZM272.88 27.3048C272.88 25.3049 274.524 23.6828 276.552 23.6828C278.58 23.6828 280.225 25.3049 280.225 27.3048V46.1791C280.225 48.1789 278.58 49.8011 276.552 49.8011C274.524 49.8011 272.88 48.1789 272.88 46.1791V27.3048Z" fill="#F62B57"/>
<path d="M297.476 50.0899C289.694 50.0899 283.946 44.7036 283.946 36.8864V36.793C283.946 29.5002 289.214 23.4962 296.748 23.4962C305.398 23.4962 309.216 30.5046 309.216 35.7931C309.216 37.8907 307.717 39.2729 305.786 39.2729H291.242C291.965 42.5615 294.288 44.277 297.573 44.277C299.601 44.277 301.293 43.6592 302.792 42.5615C303.326 42.1793 303.806 41.9882 304.582 41.9882C306.227 41.9882 307.435 43.2282 307.435 44.8503C307.435 45.8058 306.998 46.5168 306.469 46.9968C304.199 48.9033 301.249 50.0944 297.48 50.0944L297.476 50.0899ZM302.21 34.7398C301.774 31.5001 299.843 29.3047 296.753 29.3047C293.662 29.3047 291.727 31.4512 291.149 34.7398H302.215H302.21Z" fill="#F62B57"/>
<path d="M311.301 0.639956H309.216V0H314.101V0.639956H312.015V6.13291H311.305V0.639956H311.301Z" fill="#F62B57"/>
<path d="M315.41 0H316.12L318.386 3.34644L320.652 0H321.362V6.13291H320.661V1.16436L318.395 4.44858H318.359L316.093 1.17325V6.13291H315.41V0Z" fill="#F62B57"/>
</g>
<defs>
<clipPath id="clip0_1_5">
<rect width="321.362" height="65" fill="white"/>
</clipPath>
</defs>
</svg>
