<svg width="21" height="20" viewBox="0 0 21 20" fill="none" xmlns="http://www.w3.org/2000/svg">
<g clip-path="url(#clip0_15_227)">
<path d="M10.5 20C4.71198 20 0 15.5152 0 10C0 4.4848 4.71198 0 10.5 0C16.288 0 21 4.4848 21 10C21 15.5152 16.288 20 10.5 20ZM10.5 1.36824C5.50599 1.37247 1.4405 5.24071 1.4405 10C1.4405 14.7593 5.50599 18.6318 10.5 18.6318C15.494 18.6318 19.5595 14.7593 19.5595 10C19.5595 5.24071 15.4983 1.37247 10.5 1.37247V1.36824Z" fill="#808080"/>
<path d="M6.64287 14.5566L3.23688 10.266C3.0156 9.98732 3.072 9.59036 3.36705 9.37921C3.66209 9.16806 4.07862 9.22296 4.29556 9.50168L6.9032 12.7914L15.685 6.53293C15.9801 6.32178 16.3966 6.3809 16.6135 6.65961C16.8348 6.93833 16.7741 7.33529 16.479 7.54644L6.63853 14.5608L6.64287 14.5566Z" fill="#808080"/>
</g>
<defs>
<clipPath id="clip0_15_227">
<rect width="21" height="20" fill="white"/>
</clipPath>
</defs>
</svg>
